<?xml version="1.0" standalone="no"?>
<svg xmlns="http://www.w3.org/2000/svg" viewBox="0 0 132.984 36" width="132.984" height="36"><g fill="#4ad0ff" color="#4ad0ff" transform="translate(0 4) scale(0.5833334)"><svg width="48.0" height="48.0" x="0.0" y="0.0" viewBox="0 0 48 48"><path d="M29.707,35.793c-0.038-0.037-0.085-0.054-0.127-0.084C30.467,34.535,31,33.08,31,31.5c0-3.859-3.141-7-7-7  c-3.86,0-7,3.141-7,7s3.14,7,7,7c1.581,0,3.036-0.533,4.208-1.42c0.03,0.041,0.047,0.09,0.084,0.127l6,6  c0.194,0.195,0.451,0.293,0.707,0.293s0.513-0.098,0.707-0.293c0.392-0.391,0.392-1.023,0-1.414L29.707,35.793z M24,36.5  c-2.757,0-5-2.243-5-5s2.243-5,5-5s5,2.243,5,5S26.757,36.5,24,36.5z M48,29.5c0,4.963-4.038,9-9,9h-3.758l-3.125-3.125  c0.581-1.203,0.882-2.518,0.882-3.875c0-4.963-4.038-9-9-9s-9,4.037-9,9c0,2.826,1.312,5.35,3.355,7H17h-3h-2  c-6.617,0-12-5.383-12-12c0-6.297,4.875-11.477,11.05-11.963C11.698,8.311,18.591,4.5,25,4.5c8.271,0,15,7.178,15,16v0.057  C44.494,21.055,48,24.875,48,29.5z"></path></svg></g><path fill="#0019ff" fill-rule="nonzero" d="M8.16 16.80Q5.81 16.80 3.95 15.65Q2.09 14.50 1.04 12.52Q0 10.54 0 8.16L0 8.16Q0 5.88 0.91 4.02Q1.82 2.16 3.52 1.08Q5.21 0 7.44 0L7.44 0Q9.50 0 11.00 0.54Q12.50 1.08 13.20 1.92L13.20 1.92Q13.58 2.40 13.69 3.19Q13.80 3.98 13.80 5.16L13.80 5.16L13.32 5.16Q12.86 3.05 11.59 2.00Q10.32 0.96 8.16 0.96L8.16 0.96Q6.22 0.96 4.92 1.98Q3.62 3 3.01 4.63Q2.40 6.26 2.40 8.16L2.40 8.16Q2.40 12.22 3.98 14.03Q5.57 15.84 8.16 15.84L8.16 15.84Q9.38 15.84 10.25 15.62Q11.11 15.41 11.88 15L11.88 15L11.88 10.82Q11.88 10.01 12.14 9.41Q12.41 8.81 13.28 8.41Q14.16 8.02 15.84 8.02L15.84 8.02L15.84 8.50Q14.76 8.50 14.40 9.05Q14.04 9.60 14.04 10.78L14.04 10.78L14.04 15.29Q12.74 16.08 11.33 16.44Q9.91 16.80 8.16 16.80L8.16 16.80ZM22.58 16.56Q20.95 16.56 19.75 15.78Q18.55 15 17.93 13.66Q17.30 12.31 17.30 10.68L17.30 10.68Q17.30 9.05 17.93 7.70Q18.55 6.36 19.75 5.58Q20.95 4.80 22.58 4.80L22.58 4.80Q24.22 4.80 25.42 5.58Q26.62 6.36 27.24 7.70Q27.86 9.05 27.86 10.68L27.86 10.68Q27.86 12.31 27.24 13.66Q26.62 15 25.42 15.78Q24.22 16.56 22.58 16.56L22.58 16.56ZM22.58 15.60Q23.47 15.60 24.16 14.95Q24.84 14.30 25.21 13.18Q25.58 12.05 25.58 10.68L25.58 10.68Q25.58 9.31 25.21 8.18Q24.84 7.06 24.16 6.41Q23.47 5.76 22.58 5.76L22.58 5.76Q21.70 5.76 21.01 6.41Q20.33 7.06 19.96 8.18Q19.58 9.31 19.58 10.68L19.58 10.68Q19.58 12.05 19.96 13.18Q20.33 14.30 21.01 14.95Q21.70 15.60 22.58 15.60L22.58 15.60ZM35.71 16.73Q34.39 16.73 33.12 16.37Q31.85 16.01 31.04 15.34Q30.24 14.66 30.24 13.80L30.24 13.80L30.24 11.23L30.67 11.23Q31.08 13.63 32.26 14.70Q33.43 15.77 35.50 15.77L35.50 15.77Q36.79 15.77 37.72 15.12Q38.64 14.47 38.64 13.32L38.64 13.32Q38.64 12.31 38.02 11.57Q37.39 10.82 36 10.01L36 10.01L33.05 8.26Q31.51 7.34 30.88 6.41Q30.24 5.47 30.24 4.13L30.24 4.13Q30.24 2.28 31.52 1.16Q32.81 0.05 34.90 0.05L34.90 0.05Q36.12 0.05 37.32 0.40Q38.52 0.74 39.30 1.40Q40.08 2.06 40.08 2.93L40.08 2.93L40.08 5.50L39.65 5.50Q39.24 3.10 38.10 2.05Q36.96 1.01 34.90 1.01L34.90 1.01Q33.79 1.01 32.95 1.68Q32.11 2.35 32.11 3.43L32.11 3.43Q32.11 4.42 32.72 5.06Q33.34 5.71 34.78 6.58L34.78 6.58L37.73 8.33Q39.36 9.31 40.03 10.15Q40.70 10.99 40.70 12.29L40.70 12.29Q40.70 14.30 39.36 15.52Q38.02 16.73 35.71 16.73L35.71 16.73ZM47.86 16.56Q46.22 16.56 45.10 15.78Q43.97 15 43.39 13.67Q42.82 12.34 42.82 10.68L42.82 10.68Q42.82 9.05 43.39 7.70Q43.97 6.36 45.06 5.58Q46.15 4.80 47.62 4.80L47.62 4.80Q50.04 4.80 51.23 6.16Q52.42 7.51 52.42 10.08L52.42 10.08L52.37 11.04L45.10 11.04Q45.10 13.06 45.96 14.33Q46.82 15.60 48.34 15.60L48.34 15.60Q49.46 15.60 50.24 15.12Q51.02 14.64 51.70 13.68L51.70 13.68L52.18 14.04Q51.38 15.36 50.33 15.96Q49.27 16.56 47.86 16.56L47.86 16.56ZM45.10 10.08L50.14 10.08Q50.14 7.97 49.51 6.86Q48.89 5.76 47.62 5.76L47.62 5.76Q46.90 5.76 46.32 6.32Q45.74 6.89 45.42 7.87Q45.10 8.86 45.10 10.08L45.10 10.08ZM57.86 16.56Q57.10 16.56 56.30 16.24Q55.51 15.91 54.95 15.17Q54.38 14.42 54.38 13.20L54.38 13.20Q54.38 11.38 56.08 10.61Q57.77 9.84 60.50 9.84L60.50 9.84L61.22 9.84Q61.22 7.49 60.58 6.62Q59.93 5.76 58.70 5.76L58.70 5.76Q57.62 5.76 56.98 6.22Q56.33 6.67 56.06 7.80L56.06 7.80L54.98 7.80Q54.98 6.98 55.08 6.52Q55.18 6.05 55.58 5.64L55.58 5.64Q56.02 5.21 57.01 5.00Q58.01 4.80 59.18 4.80L59.18 4.80Q61.13 4.80 62.26 5.84Q63.38 6.89 63.38 9.84L63.38 9.84L63.38 16.32L62.18 16.32L61.34 15.24L61.22 15.24Q60.79 15.79 59.95 16.18Q59.11 16.56 57.86 16.56L57.86 16.56ZM58.94 15.48Q59.74 15.48 60.26 15.10Q60.79 14.71 61.22 14.04L61.22 14.04L61.22 10.80L60.50 10.80Q58.73 10.80 57.70 11.46Q56.66 12.12 56.66 13.20L56.66 13.20Q56.66 14.30 57.32 14.89Q57.98 15.48 58.94 15.48L58.94 15.48ZM66.91 16.32L66.91 7.92Q66.91 6.70 66.58 6.11Q66.24 5.52 65.23 5.52L65.23 5.52L64.99 5.52L64.99 5.04L66.91 5.04Q67.82 5.04 68.29 5.29Q68.76 5.54 68.95 6.12L68.95 6.12L69.07 6.12Q69.50 5.57 70.24 5.18Q70.97 4.80 71.95 4.80L71.95 4.80Q72.91 4.80 73.39 5.16L73.39 5.16Q73.80 5.47 74.23 6.24L74.23 6.24L73.27 6.96Q73.01 6.60 72.50 6.42Q72 6.24 71.35 6.24L71.35 6.24Q70.63 6.24 70.03 6.56Q69.43 6.89 69.07 7.44L69.07 7.44L69.07 16.32L66.91 16.32ZM80.66 16.56Q78.94 16.56 77.75 15.78Q76.56 15 75.97 13.67Q75.38 12.34 75.38 10.68L75.38 10.68Q75.38 9.02 75.97 7.69Q76.56 6.36 77.75 5.58Q78.94 4.80 80.66 4.80L80.66 4.80Q83.30 4.80 84.14 5.64L84.14 5.64Q84.55 6.05 84.65 6.64Q84.74 7.22 84.74 8.76L84.74 8.76L84.26 8.76Q84.17 7.27 83.33 6.52Q82.49 5.76 81.14 5.76L81.14 5.76Q79.42 5.76 78.54 7.13Q77.66 8.50 77.66 10.68L77.66 10.68Q77.66 12.86 78.54 14.23Q79.42 15.60 81.14 15.60L81.14 15.60Q82.37 15.60 83.16 15.13Q83.95 14.66 84.62 13.68L84.62 13.68L85.10 14.04Q84.31 15.38 83.23 15.97Q82.15 16.56 80.66 16.56L80.66 16.56ZM87.62 16.32L87.62 3.36Q87.62 2.14 87.29 1.55Q86.95 0.96 85.94 0.96L85.94 0.96L85.46 0.96L85.46 0.48L87.62 0.48Q88.51 0.48 88.96 0.71Q89.40 0.94 89.59 1.54Q89.78 2.14 89.78 3.36L89.78 3.36L89.78 6Q90.29 5.50 91.09 5.15Q91.90 4.80 92.90 4.80L92.90 4.80Q94.70 4.80 95.84 5.76Q96.98 6.72 96.98 9.12L96.98 9.12L96.98 16.32L94.82 16.32L94.82 9.12Q94.82 7.44 94.07 6.66Q93.31 5.88 92.18 5.88L92.18 5.88Q90.91 5.88 89.78 7.15L89.78 7.15L89.78 16.32L87.62 16.32Z" transform="translate(36, 9.6)"></path></svg>